<!-- sprite.svg -->
<svg xmlns="http://www.w3.org/2000/svg" xmlns:xlink="http://www.w3.org/1999/xlink">
  <defs>
    <!-- caret -->
    <symbol id="caret" xmlns="http://www.w3.org/2000/svg" viewBox="0 0 24 24" fill="currentColor">
        <path d="M12 16L6 10H18L12 16Z"></path>
    </symbol>
     <!-- close -->
    <symbol id="close" xmlns="http://www.w3.org/2000/svg" viewBox="0 0 24 24" fill="currentColor">
      <path d="M11.9997 10.5865L16.9495 5.63672L18.3637 7.05093L13.4139 12.0007L18.3637 16.9504L16.9495 18.3646L11.9997 13.4149L7.04996 18.3646L5.63574 16.9504L10.5855 12.0007L5.63574 7.05093L7.04996 5.63672L11.9997 10.5865Z"></path>
    </symbol>
    <!-- folder -->
    <symbol id="folder" xmlns="http://www.w3.org/2000/svg" viewBox="0 0 24 24" fill="currentColor">
      <path d="M12.4142 5H21C21.5523 5 22 5.44772 22 6V20C22 20.5523 21.5523 21 21 21H3C2.44772 21 2 20.5523 2 20V4C2 3.44772 2.44772 3 3 3H10.4142L12.4142 5Z"></path>
    </symbol>
  </defs>
</svg>