<!-- sprite.svg -->
<svg xmlns="http://www.w3.org/2000/svg" xmlns:xlink="http://www.w3.org/1999/xlink">
  <defs>
    <!-- caret -->
    <symbol id="caret" xmlns="http://www.w3.org/2000/svg" viewBox="0 0 24 24" fill="currentColor">
        <path d="M12 16L6 10H18L12 16Z"></path>
    </symbol>
     <!-- close -->
    <symbol id="close" xmlns="http://www.w3.org/2000/svg" viewBox="0 0 24 24" fill="currentColor">
      <path d="M11.9997 10.5865L16.9495 5.63672L18.3637 7.05093L13.4139 12.0007L18.3637 16.9504L16.9495 18.3646L11.9997 13.4149L7.04996 18.3646L5.63574 16.9504L10.5855 12.0007L5.63574 7.05093L7.04996 5.63672L11.9997 10.5865Z"></path>
    </symbol>
     <!-- eye-ball -->
    <symbol id="eye-ball" xmlns="http://www.w3.org/2000/svg" viewBox="0 0 24 24" fill="currentColor">
      <path d="M12 2C17.5228 2 22 6.47715 22 12C22 17.5228 17.5228 22 12 22C6.47715 22 2 17.5228 2 12C2 6.47715 6.47715 2 12 2ZM12 4C7.58172 4 4 7.58172 4 12C4 16.4183 7.58172 20 12 20C16.4183 20 20 16.4183 20 12C20 7.58172 16.4183 4 12 4ZM12 7C14.7614 7 17 9.23858 17 12C17 14.7614 14.7614 17 12 17C9.23858 17 7 14.7614 7 12C7 11.4872 7.07719 10.9925 7.22057 10.5268C7.61175 11.3954 8.48527 12 9.5 12C10.8807 12 12 10.8807 12 9.5C12 8.48527 11.3954 7.61175 10.5269 7.21995C10.9925 7.07719 11.4872 7 12 7Z"></path>
    </symbol>
    <!-- folder -->
    <symbol id="folder" xmlns="http://www.w3.org/2000/svg" viewBox="0 0 24 24" fill="currentColor">
      <path d="M12.4142 5H21C21.5523 5 22 5.44772 22 6V20C22 20.5523 21.5523 21 21 21H3C2.44772 21 2 20.5523 2 20V4C2 3.44772 2.44772 3 3 3H10.4142L12.4142 5Z"></path>
    </symbol>
     <!-- hashtag -->
     <symbol id="hashtag" xmlns="http://www.w3.org/2000/svg" viewBox="0 0 24 24" fill="currentColor">
      <path d="M7.78428 14L8.2047 10H4V8H8.41491L8.94043 3H10.9514L10.4259 8H14.4149L14.9404 3H16.9514L16.4259 8H20V10H16.2157L15.7953 14H20V16H15.5851L15.0596 21H13.0486L13.5741 16H9.58509L9.05957 21H7.04855L7.57407 16H4V14H7.78428ZM9.7953 14H13.7843L14.2047 10H10.2157L9.7953 14Z"></path>
     </symbol>
  </defs>
</svg>